<svg xmlns="http://www.w3.org/2000/svg" height="667" width="960.0" font-size="16" font-family="sans-serif" stroke-width="2">
<g transform="translate(10.0 0)">
<g fill="hsl(0, 100%, 40%)">
<text y="22">getPathType.get file.PathReader: get file</text>
<text y="22" x="882.4842723016616" text-anchor="end">2.03 μs</text>
</g>
<g>
<title>2.03 μs ± 133 ns</title>
<rect y="28" rx="5" height="22" width="882.4842723016616" fill="hsl(0, 100%, 80%)" stroke="hsl(0, 100%, 55%)" />
<g stroke="hsl(0, 100%, 40%)"><line x1="824.9685446033232" x2="940.0" y1="39" y2="39" />
<line x1="824.9685446033232" x2="824.9685446033232" y1="33" y2="45" />
<line x1="940.0" x2="940.0" y1="33" y2="45" />
</g>
</g>
<text fill="hsl(30, 100%, 40%)" y="77">getPathType.get file.Posix: get file 653  ns</text>
<g>
<title>653  ns ±  43 ns</title>
<rect y="83" rx="5" height="22" width="283.21036636176916" fill="hsl(30, 100%, 80%)" stroke="hsl(30, 100%, 55%)" />
<g stroke="hsl(30, 100%, 40%)"><line x1="264.59769085487494" x2="301.8230418686634" y1="94" y2="94" />
<line x1="264.59769085487494" x2="264.59769085487494" y1="88" y2="100" />
<line x1="301.8230418686634" x2="301.8230418686634" y1="88" y2="100" />
</g>
</g>
<text fill="hsl(60, 100%, 40%)" y="132">getPathType.get file.PosixCompat: get file 864  ns</text>
<g>
<title>864  ns ±  48 ns</title>
<rect y="138" rx="5" height="22" width="374.8047789489138" fill="hsl(60, 100%, 80%)" stroke="hsl(60, 100%, 55%)" />
<g stroke="hsl(60, 100%, 40%)"><line x1="354.15681670554636" x2="395.4527411922812" y1="149" y2="149" />
<line x1="354.15681670554636" x2="354.15681670554636" y1="143" y2="155" />
<line x1="395.4527411922812" x2="395.4527411922812" y1="143" y2="155" />
</g>
</g>
<g fill="hsl(90, 100%, 40%)">
<text y="187">getPathType.get dir.PathReader: get dir</text>
<text y="187" x="574.8886538512144" text-anchor="end">1.32 μs</text>
</g>
<g>
<title>1.32 μs ± 101 ns</title>
<rect y="193" rx="5" height="22" width="574.8886538512144" fill="hsl(90, 100%, 80%)" stroke="hsl(90, 100%, 55%)" />
<g stroke="hsl(90, 100%, 40%)"><line x1="531.2736307888479" x2="618.5036769135809" y1="204" y2="204" />
<line x1="531.2736307888479" x2="531.2736307888479" y1="198" y2="210" />
<line x1="618.5036769135809" x2="618.5036769135809" y1="198" y2="210" />
</g>
</g>
<text fill="hsl(120, 100%, 40%)" y="242">getPathType.get dir.Posix: get dir 640  ns</text>
<g>
<title>640  ns ±  42 ns</title>
<rect y="248" rx="5" height="22" width="277.54845035947375" fill="hsl(120, 100%, 80%)" stroke="hsl(120, 100%, 55%)" />
<g stroke="hsl(120, 100%, 40%)"><line x1="259.319398194806" x2="295.7775025241415" y1="259" y2="259" />
<line x1="259.319398194806" x2="259.319398194806" y1="253" y2="265" />
<line x1="295.7775025241415" x2="295.7775025241415" y1="253" y2="265" />
</g>
</g>
<text fill="hsl(150, 100%, 40%)" y="297">getPathType.get dir.PosixCompat: get dir 846  ns</text>
<g>
<title>846  ns ±  47 ns</title>
<rect y="303" rx="5" height="22" width="367.3119728099062" fill="hsl(150, 100%, 80%)" stroke="hsl(150, 100%, 55%)" />
<g stroke="hsl(150, 100%, 40%)"><line x1="347.0658603571516" x2="387.55808526266077" y1="314" y2="314" />
<line x1="347.0658603571516" x2="347.0658603571516" y1="308" y2="320" />
<line x1="387.55808526266077" x2="387.55808526266077" y1="308" y2="320" />
</g>
</g>
<text fill="hsl(180, 100%, 40%)" y="352">getPathType.get file link.PathReader: get file link 655  ns</text>
<g>
<title>655  ns ±  45 ns</title>
<rect y="358" rx="5" height="22" width="284.44368936924394" fill="hsl(180, 100%, 80%)" stroke="hsl(180, 100%, 55%)" />
<g stroke="hsl(180, 100%, 40%)"><line x1="264.70618161907925" x2="304.18119711940864" y1="369" y2="369" />
<line x1="264.70618161907925" x2="264.70618161907925" y1="363" y2="375" />
<line x1="304.18119711940864" x2="304.18119711940864" y1="363" y2="375" />
</g>
</g>
<text fill="hsl(210, 100%, 40%)" y="407">getPathType.get file link.Posix: get file link 634  ns</text>
<g>
<title>634  ns ±  43 ns</title>
<rect y="413" rx="5" height="22" width="275.0336344452175" fill="hsl(210, 100%, 80%)" stroke="hsl(210, 100%, 55%)" />
<g stroke="hsl(210, 100%, 40%)"><line x1="256.25344919839176" x2="293.81381969204324" y1="424" y2="424" />
<line x1="256.25344919839176" x2="256.25344919839176" y1="418" y2="430" />
<line x1="293.81381969204324" x2="293.81381969204324" y1="418" y2="430" />
</g>
</g>
<text fill="hsl(240, 100%, 40%)" y="462">getPathType.get file link.PosixCompat: get file link 888  ns</text>
<g>
<title>888  ns ±  62 ns</title>
<rect y="468" rx="5" height="22" width="385.47376070076723" fill="hsl(240, 100%, 80%)" stroke="hsl(240, 100%, 55%)" />
<g stroke="hsl(240, 100%, 40%)"><line x1="358.7338250657985" x2="412.21369633573596" y1="479" y2="479" />
<line x1="358.7338250657985" x2="358.7338250657985" y1="473" y2="485" />
<line x1="412.21369633573596" x2="412.21369633573596" y1="473" y2="485" />
</g>
</g>
<text fill="hsl(270, 100%, 40%)" y="517">getPathType.get dir link.PathReader: get dir link 661  ns</text>
<g>
<title>661  ns ±  46 ns</title>
<rect y="523" rx="5" height="22" width="286.87431645047764" fill="hsl(270, 100%, 80%)" stroke="hsl(270, 100%, 55%)" />
<g stroke="hsl(270, 100%, 40%)"><line x1="267.117714325813" x2="306.6309185751423" y1="534" y2="534" />
<line x1="267.117714325813" x2="267.117714325813" y1="528" y2="540" />
<line x1="306.6309185751423" x2="306.6309185751423" y1="528" y2="540" />
</g>
</g>
<text fill="hsl(300, 100%, 40%)" y="572">getPathType.get dir link.Posix: get dir link 637  ns</text>
<g>
<title>637  ns ±  41 ns</title>
<rect y="578" rx="5" height="22" width="276.4392407862487" fill="hsl(300, 100%, 80%)" stroke="hsl(300, 100%, 55%)" />
<g stroke="hsl(300, 100%, 40%)"><line x1="258.5747175893075" x2="294.3037639831899" y1="589" y2="589" />
<line x1="258.5747175893075" x2="258.5747175893075" y1="583" y2="595" />
<line x1="294.3037639831899" x2="294.3037639831899" y1="583" y2="595" />
</g>
</g>
<text fill="hsl(330, 100%, 40%)" y="627">getPathType.get dir link.PosixCompat: get dir link 874  ns</text>
<g>
<title>874  ns ±  47 ns</title>
<rect y="633" rx="5" height="22" width="379.28023995387065" fill="hsl(330, 100%, 80%)" stroke="hsl(330, 100%, 55%)" />
<g stroke="hsl(330, 100%, 40%)"><line x1="359.00808971770704" x2="399.55239019003426" y1="644" y2="644" />
<line x1="359.00808971770704" x2="359.00808971770704" y1="638" y2="650" />
<line x1="399.55239019003426" x2="399.55239019003426" y1="638" y2="650" />
</g>
</g>
</g>
</svg>
