<svg xmlns="http://www.w3.org/2000/svg" height="667" width="960.0" font-size="16" font-family="sans-serif" stroke-width="2">
<g transform="translate(10.0 0)">
<g fill="hsl(0, 100%, 40%)">
<text y="22">getPathType.get file.PathReader: get file</text>
<text y="22" x="873.4861321618046" text-anchor="end">4.53 μs</text>
</g>
<g>
<title>4.53 μs ± 345 ns</title>
<rect y="28" rx="5" height="22" width="873.4861321618046" fill="hsl(0, 100%, 80%)" stroke="hsl(0, 100%, 55%)" />
<g stroke="hsl(0, 100%, 40%)"><line x1="806.9722643236091" x2="940.0" y1="39" y2="39" />
<line x1="806.9722643236091" x2="806.9722643236091" y1="33" y2="45" />
<line x1="940.0" x2="940.0" y1="33" y2="45" />
</g>
</g>
<text fill="hsl(30, 100%, 40%)" y="77">getPathType.get file.Posix: get file 1.46 μs</text>
<g>
<title>1.46 μs ± 115 ns</title>
<rect y="83" rx="5" height="22" width="281.26991993392215" fill="hsl(30, 100%, 80%)" stroke="hsl(30, 100%, 55%)" />
<g stroke="hsl(30, 100%, 40%)"><line x1="259.03633768147574" x2="303.50350218636856" y1="94" y2="94" />
<line x1="259.03633768147574" x2="259.03633768147574" y1="88" y2="100" />
<line x1="303.50350218636856" x2="303.50350218636856" y1="88" y2="100" />
</g>
</g>
<text fill="hsl(60, 100%, 40%)" y="132">getPathType.get file.PosixCompat: get file 1.79 μs</text>
<g>
<title>1.79 μs ± 167 ns</title>
<rect y="138" rx="5" height="22" width="345.7288902962537" fill="hsl(60, 100%, 80%)" stroke="hsl(60, 100%, 55%)" />
<g stroke="hsl(60, 100%, 40%)"><line x1="313.5163590788866" x2="377.94142151362087" y1="149" y2="149" />
<line x1="313.5163590788866" x2="313.5163590788866" y1="143" y2="155" />
<line x1="377.94142151362087" x2="377.94142151362087" y1="143" y2="155" />
</g>
</g>
<g fill="hsl(90, 100%, 40%)">
<text y="187">getPathType.get dir.PathReader: get dir</text>
<text y="187" x="576.3515406033291" text-anchor="end">2.99 μs</text>
</g>
<g>
<title>2.99 μs ± 273 ns</title>
<rect y="193" rx="5" height="22" width="576.3515406033291" fill="hsl(90, 100%, 80%)" stroke="hsl(90, 100%, 55%)" />
<g stroke="hsl(90, 100%, 40%)"><line x1="523.7769135464671" x2="628.9261676601911" y1="204" y2="204" />
<line x1="523.7769135464671" x2="523.7769135464671" y1="198" y2="210" />
<line x1="628.9261676601911" x2="628.9261676601911" y1="198" y2="210" />
</g>
</g>
<text fill="hsl(120, 100%, 40%)" y="242">getPathType.get dir.Posix: get dir 1.46 μs</text>
<g>
<title>1.46 μs ± 139 ns</title>
<rect y="248" rx="5" height="22" width="280.56941297515215" fill="hsl(120, 100%, 80%)" stroke="hsl(120, 100%, 55%)" />
<g stroke="hsl(120, 100%, 40%)"><line x1="253.70354543209345" x2="307.43528051821085" y1="259" y2="259" />
<line x1="253.70354543209345" x2="253.70354543209345" y1="253" y2="265" />
<line x1="307.43528051821085" x2="307.43528051821085" y1="253" y2="265" />
</g>
</g>
<text fill="hsl(150, 100%, 40%)" y="297">getPathType.get dir.PosixCompat: get dir 1.77 μs</text>
<g>
<title>1.77 μs ± 164 ns</title>
<rect y="303" rx="5" height="22" width="341.87706531641624" fill="hsl(150, 100%, 80%)" stroke="hsl(150, 100%, 55%)" />
<g stroke="hsl(150, 100%, 40%)"><line x1="310.22709744327585" x2="373.5270331895566" y1="314" y2="314" />
<line x1="310.22709744327585" x2="310.22709744327585" y1="308" y2="320" />
<line x1="373.5270331895566" x2="373.5270331895566" y1="308" y2="320" />
</g>
</g>
<text fill="hsl(180, 100%, 40%)" y="352">getPathType.get file link.PathReader: get file link 1.46 μs</text>
<g>
<title>1.46 μs ±  91 ns</title>
<rect y="358" rx="5" height="22" width="281.56006390529393" fill="hsl(180, 100%, 80%)" stroke="hsl(180, 100%, 55%)" />
<g stroke="hsl(180, 100%, 40%)"><line x1="263.9587669434598" x2="299.16136086712805" y1="369" y2="369" />
<line x1="263.9587669434598" x2="263.9587669434598" y1="363" y2="375" />
<line x1="299.16136086712805" x2="299.16136086712805" y1="363" y2="375" />
</g>
</g>
<text fill="hsl(210, 100%, 40%)" y="407">getPathType.get file link.Posix: get file link 1.42 μs</text>
<g>
<title>1.42 μs ±  90 ns</title>
<rect y="413" rx="5" height="22" width="274.51492131225154" fill="hsl(210, 100%, 80%)" stroke="hsl(210, 100%, 55%)" />
<g stroke="hsl(210, 100%, 40%)"><line x1="257.09665009597063" x2="291.93319252853246" y1="424" y2="424" />
<line x1="257.09665009597063" x2="257.09665009597063" y1="418" y2="430" />
<line x1="291.93319252853246" x2="291.93319252853246" y1="418" y2="430" />
</g>
</g>
<text fill="hsl(240, 100%, 40%)" y="462">getPathType.get file link.PosixCompat: get file link 1.80 μs</text>
<g>
<title>1.80 μs ±  84 ns</title>
<rect y="468" rx="5" height="22" width="346.08819873357663" fill="hsl(240, 100%, 80%)" stroke="hsl(240, 100%, 55%)" />
<g stroke="hsl(240, 100%, 40%)"><line x1="329.97538272978903" x2="362.20101473736423" y1="479" y2="479" />
<line x1="329.97538272978903" x2="329.97538272978903" y1="473" y2="485" />
<line x1="362.20101473736423" x2="362.20101473736423" y1="473" y2="485" />
</g>
</g>
<text fill="hsl(270, 100%, 40%)" y="517">getPathType.get dir link.PathReader: get dir link 1.48 μs</text>
<g>
<title>1.48 μs ±  86 ns</title>
<rect y="523" rx="5" height="22" width="284.5560990306604" fill="hsl(270, 100%, 80%)" stroke="hsl(270, 100%, 55%)" />
<g stroke="hsl(270, 100%, 40%)"><line x1="268.048718051196" x2="301.0634800101248" y1="534" y2="534" />
<line x1="268.048718051196" x2="268.048718051196" y1="528" y2="540" />
<line x1="301.0634800101248" x2="301.0634800101248" y1="528" y2="540" />
</g>
</g>
<text fill="hsl(300, 100%, 40%)" y="572">getPathType.get dir link.Posix: get dir link 1.45 μs</text>
<g>
<title>1.45 μs ± 107 ns</title>
<rect y="578" rx="5" height="22" width="280.1068394856013" fill="hsl(300, 100%, 80%)" stroke="hsl(300, 100%, 55%)" />
<g stroke="hsl(300, 100%, 40%)"><line x1="259.4796453030736" x2="300.73403366812903" y1="589" y2="589" />
<line x1="259.4796453030736" x2="259.4796453030736" y1="583" y2="595" />
<line x1="300.73403366812903" x2="300.73403366812903" y1="583" y2="595" />
</g>
</g>
<text fill="hsl(330, 100%, 40%)" y="627">getPathType.get dir link.PosixCompat: get dir link 1.81 μs</text>
<g>
<title>1.81 μs ± 173 ns</title>
<rect y="633" rx="5" height="22" width="347.93059368591923" fill="hsl(330, 100%, 80%)" stroke="hsl(330, 100%, 55%)" />
<g stroke="hsl(330, 100%, 40%)"><line x1="314.6229905341052" x2="381.23819683773326" y1="644" y2="644" />
<line x1="314.6229905341052" x2="314.6229905341052" y1="638" y2="650" />
<line x1="381.23819683773326" x2="381.23819683773326" y1="638" y2="650" />
</g>
</g>
</g>
</svg>
