<svg xmlns="http://www.w3.org/2000/svg" height="667" width="960.0" font-size="16" font-family="sans-serif" stroke-width="2">
<g transform="translate(10.0 0)">
<g fill="hsl(0, 100%, 40%)">
<text y="22">getPathType.get file.PathReader: get file</text>
<text y="22" x="878.7468699679554" text-anchor="end">4.72 μs</text>
</g>
<g>
<title>4.72 μs ± 329 ns</title>
<rect y="28" rx="5" height="22" width="878.7468699679554" fill="hsl(0, 100%, 80%)" stroke="hsl(0, 100%, 55%)" />
<g stroke="hsl(0, 100%, 40%)"><line x1="817.4937399359108" x2="940.0" y1="39" y2="39" />
<line x1="817.4937399359108" x2="817.4937399359108" y1="33" y2="45" />
<line x1="940.0" x2="940.0" y1="33" y2="45" />
</g>
</g>
<text fill="hsl(30, 100%, 40%)" y="77">getPathType.get file.Posix: get file 1.50 μs</text>
<g>
<title>1.50 μs ± 123 ns</title>
<rect y="83" rx="5" height="22" width="280.05115018587554" fill="hsl(30, 100%, 80%)" stroke="hsl(30, 100%, 55%)" />
<g stroke="hsl(30, 100%, 40%)"><line x1="257.2067268179541" x2="302.89557355379696" y1="94" y2="94" />
<line x1="257.2067268179541" x2="257.2067268179541" y1="88" y2="100" />
<line x1="302.89557355379696" x2="302.89557355379696" y1="88" y2="100" />
</g>
</g>
<text fill="hsl(60, 100%, 40%)" y="132">getPathType.get file.PosixCompat: get file 1.84 μs</text>
<g>
<title>1.84 μs ± 179 ns</title>
<rect y="138" rx="5" height="22" width="342.59875906028026" fill="hsl(60, 100%, 80%)" stroke="hsl(60, 100%, 55%)" />
<g stroke="hsl(60, 100%, 40%)"><line x1="309.3322169114931" x2="375.8653012090674" y1="149" y2="149" />
<line x1="309.3322169114931" x2="309.3322169114931" y1="143" y2="155" />
<line x1="375.8653012090674" x2="375.8653012090674" y1="143" y2="155" />
</g>
</g>
<g fill="hsl(90, 100%, 40%)">
<text y="187">getPathType.get dir.PathReader: get dir</text>
<text y="187" x="583.871218482526" text-anchor="end">3.14 μs</text>
</g>
<g>
<title>3.14 μs ± 169 ns</title>
<rect y="193" rx="5" height="22" width="583.871218482526" fill="hsl(90, 100%, 80%)" stroke="hsl(90, 100%, 55%)" />
<g stroke="hsl(90, 100%, 40%)"><line x1="552.3832813254281" x2="615.359155639624" y1="204" y2="204" />
<line x1="552.3832813254281" x2="552.3832813254281" y1="198" y2="210" />
<line x1="615.359155639624" x2="615.359155639624" y1="198" y2="210" />
</g>
</g>
<text fill="hsl(120, 100%, 40%)" y="242">getPathType.get dir.Posix: get dir 1.45 μs</text>
<g>
<title>1.45 μs ±  91 ns</title>
<rect y="248" rx="5" height="22" width="270.61478672599" fill="hsl(120, 100%, 80%)" stroke="hsl(120, 100%, 55%)" />
<g stroke="hsl(120, 100%, 40%)"><line x1="253.7366595414549" x2="287.49291391052503" y1="259" y2="259" />
<line x1="253.7366595414549" x2="253.7366595414549" y1="253" y2="265" />
<line x1="287.49291391052503" x2="287.49291391052503" y1="253" y2="265" />
</g>
</g>
<text fill="hsl(150, 100%, 40%)" y="297">getPathType.get dir.PosixCompat: get dir 1.81 μs</text>
<g>
<title>1.81 μs ± 105 ns</title>
<rect y="303" rx="5" height="22" width="336.74772214090723" fill="hsl(150, 100%, 80%)" stroke="hsl(150, 100%, 55%)" />
<g stroke="hsl(150, 100%, 40%)"><line x1="317.1551368775567" x2="356.34030740425777" y1="314" y2="314" />
<line x1="317.1551368775567" x2="317.1551368775567" y1="308" y2="320" />
<line x1="356.34030740425777" x2="356.34030740425777" y1="308" y2="320" />
</g>
</g>
<text fill="hsl(180, 100%, 40%)" y="352">getPathType.get file link.PathReader: get file link 1.58 μs</text>
<g>
<title>1.58 μs ±  86 ns</title>
<rect y="358" rx="5" height="22" width="294.62055424520594" fill="hsl(180, 100%, 80%)" stroke="hsl(180, 100%, 55%)" />
<g stroke="hsl(180, 100%, 40%)"><line x1="278.6458809362651" x2="310.5952275541468" y1="369" y2="369" />
<line x1="278.6458809362651" x2="278.6458809362651" y1="363" y2="375" />
<line x1="310.5952275541468" x2="310.5952275541468" y1="363" y2="375" />
</g>
</g>
<text fill="hsl(210, 100%, 40%)" y="407">getPathType.get file link.Posix: get file link 1.43 μs</text>
<g>
<title>1.43 μs ± 110 ns</title>
<rect y="413" rx="5" height="22" width="266.4241162964508" fill="hsl(210, 100%, 80%)" stroke="hsl(210, 100%, 55%)" />
<g stroke="hsl(210, 100%, 40%)"><line x1="245.85285140199485" x2="286.99538119090676" y1="424" y2="424" />
<line x1="245.85285140199485" x2="245.85285140199485" y1="418" y2="430" />
<line x1="286.99538119090676" x2="286.99538119090676" y1="418" y2="430" />
</g>
</g>
<text fill="hsl(240, 100%, 40%)" y="462">getPathType.get file link.PosixCompat: get file link 1.84 μs</text>
<g>
<title>1.84 μs ± 119 ns</title>
<rect y="468" rx="5" height="22" width="342.6298548552564" fill="hsl(240, 100%, 80%)" stroke="hsl(240, 100%, 55%)" />
<g stroke="hsl(240, 100%, 40%)"><line x1="320.42187117133767" x2="364.8378385391751" y1="479" y2="479" />
<line x1="320.42187117133767" x2="320.42187117133767" y1="473" y2="485" />
<line x1="364.8378385391751" x2="364.8378385391751" y1="473" y2="485" />
</g>
</g>
<text fill="hsl(270, 100%, 40%)" y="517">getPathType.get dir link.PathReader: get dir link 1.59 μs</text>
<g>
<title>1.59 μs ±  91 ns</title>
<rect y="523" rx="5" height="22" width="296.2397700123468" fill="hsl(270, 100%, 80%)" stroke="hsl(270, 100%, 55%)" />
<g stroke="hsl(270, 100%, 40%)"><line x1="279.3288712115495" x2="313.15066881314414" y1="534" y2="534" />
<line x1="279.3288712115495" x2="279.3288712115495" y1="528" y2="540" />
<line x1="313.15066881314414" x2="313.15066881314414" y1="528" y2="540" />
</g>
</g>
<text fill="hsl(300, 100%, 40%)" y="572">getPathType.get dir link.Posix: get dir link 1.42 μs</text>
<g>
<title>1.42 μs ± 106 ns</title>
<rect y="578" rx="5" height="22" width="264.84493403781215" fill="hsl(300, 100%, 80%)" stroke="hsl(300, 100%, 55%)" />
<g stroke="hsl(300, 100%, 40%)"><line x1="245.0866286694989" x2="284.6032394061254" y1="589" y2="589" />
<line x1="245.0866286694989" x2="245.0866286694989" y1="583" y2="595" />
<line x1="284.6032394061254" x2="284.6032394061254" y1="583" y2="595" />
</g>
</g>
<text fill="hsl(330, 100%, 40%)" y="627">getPathType.get dir link.PosixCompat: get dir link 1.81 μs</text>
<g>
<title>1.81 μs ± 170 ns</title>
<rect y="633" rx="5" height="22" width="337.61430794820643" fill="hsl(330, 100%, 80%)" stroke="hsl(330, 100%, 55%)" />
<g stroke="hsl(330, 100%, 40%)"><line x1="305.9718228280534" x2="369.25679306835946" y1="644" y2="644" />
<line x1="305.9718228280534" x2="305.9718228280534" y1="638" y2="650" />
<line x1="369.25679306835946" x2="369.25679306835946" y1="638" y2="650" />
</g>
</g>
</g>
</svg>
