<svg xmlns="http://www.w3.org/2000/svg" height="447" width="960.0" font-size="16" font-family="sans-serif" stroke-width="2">
<g transform="translate(10.0 0)">
<g fill="hsl(0, 100%, 40%)">
<text y="22">getPathType.get file.PathReader: get file</text>
<text y="22" x="863.986726293994" text-anchor="end">1.70 μs</text>
</g>
<g>
<title>1.70 μs ± 149 ns</title>
<rect y="28" rx="5" height="22" width="863.986726293994" fill="hsl(0, 100%, 80%)" stroke="hsl(0, 100%, 55%)" />
<g stroke="hsl(0, 100%, 40%)"><line x1="787.973452587988" x2="940.0" y1="39" y2="39" />
<line x1="787.973452587988" x2="787.973452587988" y1="33" y2="45" />
<line x1="940.0" x2="940.0" y1="33" y2="45" />
</g>
</g>
<text fill="hsl(45, 100%, 40%)" y="77">getPathType.get file.PosixCompat: get file 733  ns</text>
<g>
<title>733  ns ±  67 ns</title>
<rect y="83" rx="5" height="22" width="373.2376674716753" fill="hsl(45, 100%, 80%)" stroke="hsl(45, 100%, 55%)" />
<g stroke="hsl(45, 100%, 40%)"><line x1="339.28406044984797" x2="407.19127449350265" y1="94" y2="94" />
<line x1="339.28406044984797" x2="339.28406044984797" y1="88" y2="100" />
<line x1="407.19127449350265" x2="407.19127449350265" y1="88" y2="100" />
</g>
</g>
<g fill="hsl(90, 100%, 40%)">
<text y="132">getPathType.get dir.PathReader: get dir</text>
<text y="132" x="655.7375632123149" text-anchor="end">1.29 μs</text>
</g>
<g>
<title>1.29 μs ±  75 ns</title>
<rect y="138" rx="5" height="22" width="655.7375632123149" fill="hsl(90, 100%, 80%)" stroke="hsl(90, 100%, 55%)" />
<g stroke="hsl(90, 100%, 40%)"><line x1="617.3058189721706" x2="694.1693074524591" y1="149" y2="149" />
<line x1="617.3058189721706" x2="617.3058189721706" y1="143" y2="155" />
<line x1="694.1693074524591" x2="694.1693074524591" y1="143" y2="155" />
</g>
</g>
<g fill="hsl(135, 100%, 40%)">
<text y="187">getPathType.get dir.PosixCompat: get dir</text>
<text y="187" x="398.25230981874034" text-anchor="end">782  ns</text>
</g>
<g>
<title>782  ns ±  55 ns</title>
<rect y="193" rx="5" height="22" width="398.25230981874034" fill="hsl(135, 100%, 80%)" stroke="hsl(135, 100%, 55%)" />
<g stroke="hsl(135, 100%, 40%)"><line x1="370.28380751934753" x2="426.22081211813315" y1="204" y2="204" />
<line x1="370.28380751934753" x2="370.28380751934753" y1="198" y2="210" />
<line x1="426.22081211813315" x2="426.22081211813315" y1="198" y2="210" />
</g>
</g>
<text fill="hsl(180, 100%, 40%)" y="242">getPathType.get file link.PathReader: get file link 575  ns</text>
<g>
<title>575  ns ±  31 ns</title>
<rect y="248" rx="5" height="22" width="292.6637806231406" fill="hsl(180, 100%, 80%)" stroke="hsl(180, 100%, 55%)" />
<g stroke="hsl(180, 100%, 40%)"><line x1="276.9566990565747" x2="308.37086218970654" y1="259" y2="259" />
<line x1="276.9566990565747" x2="276.9566990565747" y1="253" y2="265" />
<line x1="308.37086218970654" x2="308.37086218970654" y1="253" y2="265" />
</g>
</g>
<text fill="hsl(225, 100%, 40%)" y="297">getPathType.get file link.PosixCompat: get file link 734  ns</text>
<g>
<title>734  ns ±  63 ns</title>
<rect y="303" rx="5" height="22" width="373.6352828840793" fill="hsl(225, 100%, 80%)" stroke="hsl(225, 100%, 55%)" />
<g stroke="hsl(225, 100%, 40%)"><line x1="341.65804337947645" x2="405.6125223886821" y1="314" y2="314" />
<line x1="341.65804337947645" x2="341.65804337947645" y1="308" y2="320" />
<line x1="405.6125223886821" x2="405.6125223886821" y1="308" y2="320" />
</g>
</g>
<text fill="hsl(270, 100%, 40%)" y="352">getPathType.get dir link.PathReader: get dir link 570  ns</text>
<g>
<title>570  ns ±  44 ns</title>
<rect y="358" rx="5" height="22" width="289.99960462684083" fill="hsl(270, 100%, 80%)" stroke="hsl(270, 100%, 55%)" />
<g stroke="hsl(270, 100%, 40%)"><line x1="267.34621744332213" x2="312.65299181035954" y1="369" y2="369" />
<line x1="267.34621744332213" x2="267.34621744332213" y1="363" y2="375" />
<line x1="312.65299181035954" x2="312.65299181035954" y1="363" y2="375" />
</g>
</g>
<text fill="hsl(315, 100%, 40%)" y="407">getPathType.get dir link.PosixCompat: get dir link 805  ns</text>
<g>
<title>805  ns ±  43 ns</title>
<rect y="413" rx="5" height="22" width="410.00207435506786" fill="hsl(315, 100%, 80%)" stroke="hsl(315, 100%, 55%)" />
<g stroke="hsl(315, 100%, 40%)"><line x1="388.25795878045255" x2="431.74618992968317" y1="424" y2="424" />
<line x1="388.25795878045255" x2="388.25795878045255" y1="418" y2="430" />
<line x1="431.74618992968317" x2="431.74618992968317" y1="418" y2="430" />
</g>
</g>
</g>
</svg>
