<svg xmlns="http://www.w3.org/2000/svg" height="447" width="960.0" font-size="16" font-family="sans-serif" stroke-width="2">
<g transform="translate(10.0 0)">
<g fill="hsl(0, 100%, 40%)">
<text y="22">getPathType.get file.PathReader: get file</text>
<text y="22" x="871.3689754168656" text-anchor="end">4.20 μs</text>
</g>
<g>
<title>4.20 μs ± 331 ns</title>
<rect y="28" rx="5" height="22" width="871.3689754168656" fill="hsl(0, 100%, 80%)" stroke="hsl(0, 100%, 55%)" />
<g stroke="hsl(0, 100%, 40%)"><line x1="802.7379508337312" x2="940.0" y1="39" y2="39" />
<line x1="802.7379508337312" x2="802.7379508337312" y1="33" y2="45" />
<line x1="940.0" x2="940.0" y1="33" y2="45" />
</g>
</g>
<text fill="hsl(45, 100%, 40%)" y="77">getPathType.get file.PosixCompat: get file 1.65 μs</text>
<g>
<title>1.65 μs ± 164 ns</title>
<rect y="83" rx="5" height="22" width="342.90892560066703" fill="hsl(45, 100%, 80%)" stroke="hsl(45, 100%, 55%)" />
<g stroke="hsl(45, 100%, 40%)"><line x1="308.8773277211845" x2="376.9405234801496" y1="94" y2="94" />
<line x1="308.8773277211845" x2="308.8773277211845" y1="88" y2="100" />
<line x1="376.9405234801496" x2="376.9405234801496" y1="88" y2="100" />
</g>
</g>
<g fill="hsl(90, 100%, 40%)">
<text y="132">getPathType.get dir.PathReader: get dir</text>
<text y="132" x="577.1356214921313" text-anchor="end">2.78 μs</text>
</g>
<g>
<title>2.78 μs ± 166 ns</title>
<rect y="138" rx="5" height="22" width="577.1356214921313" fill="hsl(90, 100%, 80%)" stroke="hsl(90, 100%, 55%)" />
<g stroke="hsl(90, 100%, 40%)"><line x1="542.821352621347" x2="611.4498903629157" y1="149" y2="149" />
<line x1="542.821352621347" x2="542.821352621347" y1="143" y2="155" />
<line x1="611.4498903629157" x2="611.4498903629157" y1="143" y2="155" />
</g>
</g>
<text fill="hsl(135, 100%, 40%)" y="187">getPathType.get dir.PosixCompat: get dir 1.63 μs</text>
<g>
<title>1.63 μs ±  82 ns</title>
<rect y="193" rx="5" height="22" width="338.65311073455746" fill="hsl(135, 100%, 80%)" stroke="hsl(135, 100%, 55%)" />
<g stroke="hsl(135, 100%, 40%)"><line x1="321.5701670725422" x2="355.73605439657274" y1="204" y2="204" />
<line x1="321.5701670725422" x2="321.5701670725422" y1="198" y2="210" />
<line x1="355.73605439657274" x2="355.73605439657274" y1="198" y2="210" />
</g>
</g>
<text fill="hsl(180, 100%, 40%)" y="242">getPathType.get file link.PathReader: get file link 1.41 μs</text>
<g>
<title>1.41 μs ±  86 ns</title>
<rect y="248" rx="5" height="22" width="291.8107557661434" fill="hsl(180, 100%, 80%)" stroke="hsl(180, 100%, 55%)" />
<g stroke="hsl(180, 100%, 40%)"><line x1="274.0269372561936" x2="309.5945742760932" y1="259" y2="259" />
<line x1="274.0269372561936" x2="274.0269372561936" y1="253" y2="265" />
<line x1="309.5945742760932" x2="309.5945742760932" y1="253" y2="265" />
</g>
</g>
<text fill="hsl(225, 100%, 40%)" y="297">getPathType.get file link.PosixCompat: get file link 1.66 μs</text>
<g>
<title>1.66 μs ± 165 ns</title>
<rect y="303" rx="5" height="22" width="343.3277511676912" fill="hsl(225, 100%, 80%)" stroke="hsl(225, 100%, 55%)" />
<g stroke="hsl(225, 100%, 40%)"><line x1="309.12870595611787" x2="377.5267963792645" y1="314" y2="314" />
<line x1="309.12870595611787" x2="309.12870595611787" y1="308" y2="320" />
<line x1="377.5267963792645" x2="377.5267963792645" y1="308" y2="320" />
</g>
</g>
<text fill="hsl(270, 100%, 40%)" y="352">getPathType.get dir link.PathReader: get dir link 1.41 μs</text>
<g>
<title>1.41 μs ±  84 ns</title>
<rect y="358" rx="5" height="22" width="292.69814373150575" fill="hsl(270, 100%, 80%)" stroke="hsl(270, 100%, 55%)" />
<g stroke="hsl(270, 100%, 40%)"><line x1="275.2637264615375" x2="310.132561001474" y1="369" y2="369" />
<line x1="275.2637264615375" x2="275.2637264615375" y1="363" y2="375" />
<line x1="310.132561001474" x2="310.132561001474" y1="363" y2="375" />
</g>
</g>
<text fill="hsl(315, 100%, 40%)" y="407">getPathType.get dir link.PosixCompat: get dir link 1.64 μs</text>
<g>
<title>1.64 μs ±  84 ns</title>
<rect y="413" rx="5" height="22" width="340.25940314920564" fill="hsl(315, 100%, 80%)" stroke="hsl(315, 100%, 55%)" />
<g stroke="hsl(315, 100%, 40%)"><line x1="322.805505620306" x2="357.71330067810527" y1="424" y2="424" />
<line x1="322.805505620306" x2="322.805505620306" y1="418" y2="430" />
<line x1="357.71330067810527" x2="357.71330067810527" y1="418" y2="430" />
</g>
</g>
</g>
</svg>
