<svg xmlns="http://www.w3.org/2000/svg" height="447" width="960.0" font-size="16" font-family="sans-serif" stroke-width="2">
<g transform="translate(10.0 0)">
<g fill="hsl(0, 100%, 40%)">
<text y="22">getPathType.get file.PathReader: get file</text>
<text y="22" x="900.3124215064947" text-anchor="end">4.55 μs</text>
</g>
<g>
<title>4.55 μs ± 201 ns</title>
<rect y="28" rx="5" height="22" width="900.3124215064947" fill="hsl(0, 100%, 80%)" stroke="hsl(0, 100%, 55%)" />
<g stroke="hsl(0, 100%, 40%)"><line x1="860.6248430129895" x2="940.0" y1="39" y2="39" />
<line x1="860.6248430129895" x2="860.6248430129895" y1="33" y2="45" />
<line x1="940.0" x2="940.0" y1="33" y2="45" />
</g>
</g>
<text fill="hsl(45, 100%, 40%)" y="77">getPathType.get file.PosixCompat: get file 1.82 μs</text>
<g>
<title>1.82 μs ±  46 ns</title>
<rect y="83" rx="5" height="22" width="360.6489553763502" fill="hsl(45, 100%, 80%)" stroke="hsl(45, 100%, 55%)" />
<g stroke="hsl(45, 100%, 40%)"><line x1="351.4755285387134" x2="369.82238221398705" y1="94" y2="94" />
<line x1="351.4755285387134" x2="351.4755285387134" y1="88" y2="100" />
<line x1="369.82238221398705" x2="369.82238221398705" y1="88" y2="100" />
</g>
</g>
<g fill="hsl(90, 100%, 40%)">
<text y="132">getPathType.get dir.PathReader: get dir</text>
<text y="132" x="556.2402973086799" text-anchor="end">2.81 μs</text>
</g>
<g>
<title>2.81 μs ± 165 ns</title>
<rect y="138" rx="5" height="22" width="556.2402973086799" fill="hsl(90, 100%, 80%)" stroke="hsl(90, 100%, 55%)" />
<g stroke="hsl(90, 100%, 40%)"><line x1="523.6917370452321" x2="588.7888575721278" y1="149" y2="149" />
<line x1="523.6917370452321" x2="523.6917370452321" y1="143" y2="155" />
<line x1="588.7888575721278" x2="588.7888575721278" y1="143" y2="155" />
</g>
</g>
<text fill="hsl(135, 100%, 40%)" y="187">getPathType.get dir.PosixCompat: get dir 1.81 μs</text>
<g>
<title>1.81 μs ± 129 ns</title>
<rect y="193" rx="5" height="22" width="357.286486095316" fill="hsl(135, 100%, 80%)" stroke="hsl(135, 100%, 55%)" />
<g stroke="hsl(135, 100%, 40%)"><line x1="331.76462445761905" x2="382.8083477330129" y1="204" y2="204" />
<line x1="331.76462445761905" x2="331.76462445761905" y1="198" y2="210" />
<line x1="382.8083477330129" x2="382.8083477330129" y1="198" y2="210" />
</g>
</g>
<text fill="hsl(180, 100%, 40%)" y="242">getPathType.get file link.PathReader: get file link 1.44 μs</text>
<g>
<title>1.44 μs ±  84 ns</title>
<rect y="248" rx="5" height="22" width="285.0962243598401" fill="hsl(180, 100%, 80%)" stroke="hsl(180, 100%, 55%)" />
<g stroke="hsl(180, 100%, 40%)"><line x1="268.46105817554695" x2="301.73139054413326" y1="259" y2="259" />
<line x1="268.46105817554695" x2="268.46105817554695" y1="253" y2="265" />
<line x1="301.73139054413326" x2="301.73139054413326" y1="253" y2="265" />
</g>
</g>
<text fill="hsl(225, 100%, 40%)" y="297">getPathType.get file link.PosixCompat: get file link 1.88 μs</text>
<g>
<title>1.88 μs ± 167 ns</title>
<rect y="303" rx="5" height="22" width="370.88783648864074" fill="hsl(225, 100%, 80%)" stroke="hsl(225, 100%, 55%)" />
<g stroke="hsl(225, 100%, 40%)"><line x1="337.9516944920226" x2="403.82397848525886" y1="314" y2="314" />
<line x1="337.9516944920226" x2="337.9516944920226" y1="308" y2="320" />
<line x1="403.82397848525886" x2="403.82397848525886" y1="308" y2="320" />
</g>
</g>
<text fill="hsl(270, 100%, 40%)" y="352">getPathType.get dir link.PathReader: get dir link 1.41 μs</text>
<g>
<title>1.41 μs ± 107 ns</title>
<rect y="358" rx="5" height="22" width="278.93505902290866" fill="hsl(270, 100%, 80%)" stroke="hsl(270, 100%, 55%)" />
<g stroke="hsl(270, 100%, 40%)"><line x1="257.86010453599374" x2="300.0100135098236" y1="369" y2="369" />
<line x1="257.86010453599374" x2="257.86010453599374" y1="363" y2="375" />
<line x1="300.0100135098236" x2="300.0100135098236" y1="363" y2="375" />
</g>
</g>
<text fill="hsl(315, 100%, 40%)" y="407">getPathType.get dir link.PosixCompat: get dir link 1.85 μs</text>
<g>
<title>1.85 μs ± 167 ns</title>
<rect y="413" rx="5" height="22" width="366.4605061702995" fill="hsl(315, 100%, 80%)" stroke="hsl(315, 100%, 55%)" />
<g stroke="hsl(315, 100%, 40%)"><line x1="333.4076941621658" x2="399.51331817843317" y1="424" y2="424" />
<line x1="333.4076941621658" x2="333.4076941621658" y1="418" y2="430" />
<line x1="399.51331817843317" x2="399.51331817843317" y1="418" y2="430" />
</g>
</g>
</g>
</svg>
