<svg xmlns="http://www.w3.org/2000/svg" height="447" width="960.0" font-size="16" font-family="sans-serif" stroke-width="2">
<g transform="translate(10.0 0)">
<g fill="hsl(0, 100%, 40%)">
<text y="22">getPathType.get file.PathReader: get file</text>
<text y="22" x="859.9248627418116" text-anchor="end">4.32 μs</text>
</g>
<g>
<title>4.32 μs ± 403 ns</title>
<rect y="28" rx="5" height="22" width="859.9248627418116" fill="hsl(0, 100%, 80%)" stroke="hsl(0, 100%, 55%)" />
<g stroke="hsl(0, 100%, 40%)"><line x1="779.8497254836232" x2="940.0" y1="39" y2="39" />
<line x1="779.8497254836232" x2="779.8497254836232" y1="33" y2="45" />
<line x1="940.0" x2="940.0" y1="33" y2="45" />
</g>
</g>
<text fill="hsl(45, 100%, 40%)" y="77">getPathType.get file.PosixCompat: get file 1.73 μs</text>
<g>
<title>1.73 μs ± 165 ns</title>
<rect y="83" rx="5" height="22" width="344.1318762156844" fill="hsl(45, 100%, 80%)" stroke="hsl(45, 100%, 55%)" />
<g stroke="hsl(45, 100%, 40%)"><line x1="311.2817416504928" x2="376.98201078087595" y1="94" y2="94" />
<line x1="311.2817416504928" x2="311.2817416504928" y1="88" y2="100" />
<line x1="376.98201078087595" x2="376.98201078087595" y1="88" y2="100" />
</g>
</g>
<g fill="hsl(90, 100%, 40%)">
<text y="132">getPathType.get dir.PathReader: get dir</text>
<text y="132" x="570.5081986676173" text-anchor="end">2.87 μs</text>
</g>
<g>
<title>2.87 μs ± 174 ns</title>
<rect y="138" rx="5" height="22" width="570.5081986676173" fill="hsl(90, 100%, 80%)" stroke="hsl(90, 100%, 55%)" />
<g stroke="hsl(90, 100%, 40%)"><line x1="535.9158125792688" x2="605.1005847559658" y1="149" y2="149" />
<line x1="535.9158125792688" x2="535.9158125792688" y1="143" y2="155" />
<line x1="605.1005847559658" x2="605.1005847559658" y1="143" y2="155" />
</g>
</g>
<text fill="hsl(135, 100%, 40%)" y="187">getPathType.get dir.PosixCompat: get dir 1.71 μs</text>
<g>
<title>1.71 μs ± 138 ns</title>
<rect y="193" rx="5" height="22" width="341.14191955970716" fill="hsl(135, 100%, 80%)" stroke="hsl(135, 100%, 55%)" />
<g stroke="hsl(135, 100%, 40%)"><line x1="313.6076613591878" x2="368.67617776022655" y1="204" y2="204" />
<line x1="313.6076613591878" x2="313.6076613591878" y1="198" y2="210" />
<line x1="368.67617776022655" x2="368.67617776022655" y1="198" y2="210" />
</g>
</g>
<text fill="hsl(180, 100%, 40%)" y="242">getPathType.get file link.PathReader: get file link 1.42 μs</text>
<g>
<title>1.42 μs ±  93 ns</title>
<rect y="248" rx="5" height="22" width="282.44009854358075" fill="hsl(180, 100%, 80%)" stroke="hsl(180, 100%, 55%)" />
<g stroke="hsl(180, 100%, 40%)"><line x1="263.8426875029496" x2="301.0375095842119" y1="259" y2="259" />
<line x1="263.8426875029496" x2="263.8426875029496" y1="253" y2="265" />
<line x1="301.0375095842119" x2="301.0375095842119" y1="253" y2="265" />
</g>
</g>
<text fill="hsl(225, 100%, 40%)" y="297">getPathType.get file link.PosixCompat: get file link 1.69 μs</text>
<g>
<title>1.69 μs ±  84 ns</title>
<rect y="303" rx="5" height="22" width="336.84855664890875" fill="hsl(225, 100%, 80%)" stroke="hsl(225, 100%, 55%)" />
<g stroke="hsl(225, 100%, 40%)"><line x1="320.0944548813505" x2="353.602658416467" y1="314" y2="314" />
<line x1="320.0944548813505" x2="320.0944548813505" y1="308" y2="320" />
<line x1="353.602658416467" x2="353.602658416467" y1="308" y2="320" />
</g>
</g>
<text fill="hsl(270, 100%, 40%)" y="352">getPathType.get dir link.PathReader: get dir link 1.42 μs</text>
<g>
<title>1.42 μs ±  93 ns</title>
<rect y="358" rx="5" height="22" width="283.38622188728186" fill="hsl(270, 100%, 80%)" stroke="hsl(270, 100%, 55%)" />
<g stroke="hsl(270, 100%, 40%)"><line x1="264.8234251153227" x2="301.949018659241" y1="369" y2="369" />
<line x1="264.8234251153227" x2="264.8234251153227" y1="363" y2="375" />
<line x1="301.949018659241" x2="301.949018659241" y1="363" y2="375" />
</g>
</g>
<text fill="hsl(315, 100%, 40%)" y="407">getPathType.get dir link.PosixCompat: get dir link 1.70 μs</text>
<g>
<title>1.70 μs ± 169 ns</title>
<rect y="413" rx="5" height="22" width="337.81835296946025" fill="hsl(315, 100%, 80%)" stroke="hsl(315, 100%, 55%)" />
<g stroke="hsl(315, 100%, 40%)"><line x1="304.1935749432989" x2="371.4431309956216" y1="424" y2="424" />
<line x1="304.1935749432989" x2="304.1935749432989" y1="418" y2="430" />
<line x1="371.4431309956216" x2="371.4431309956216" y1="418" y2="430" />
</g>
</g>
</g>
</svg>
