<svg xmlns="http://www.w3.org/2000/svg" height="447" width="960.0" font-size="16" font-family="sans-serif" stroke-width="2">
<g transform="translate(10.0 0)">
<g fill="hsl(0, 100%, 40%)">
<text y="22">getPathType.get file.PathReader: get file</text>
<text y="22" x="873.6239586364835" text-anchor="end">4.44 μs</text>
</g>
<g>
<title>4.44 μs ± 338 ns</title>
<rect y="28" rx="5" height="22" width="873.6239586364835" fill="hsl(0, 100%, 80%)" stroke="hsl(0, 100%, 55%)" />
<g stroke="hsl(0, 100%, 40%)"><line x1="807.247917272967" x2="940.0" y1="39" y2="39" />
<line x1="807.247917272967" x2="807.247917272967" y1="33" y2="45" />
<line x1="940.0" x2="940.0" y1="33" y2="45" />
</g>
</g>
<text fill="hsl(45, 100%, 40%)" y="77">getPathType.get file.PosixCompat: get file 1.87 μs</text>
<g>
<title>1.87 μs ± 171 ns</title>
<rect y="83" rx="5" height="22" width="368.48687702563626" fill="hsl(45, 100%, 80%)" stroke="hsl(45, 100%, 55%)" />
<g stroke="hsl(45, 100%, 40%)"><line x1="334.7814274246072" x2="402.1923266266653" y1="94" y2="94" />
<line x1="334.7814274246072" x2="334.7814274246072" y1="88" y2="100" />
<line x1="402.1923266266653" x2="402.1923266266653" y1="88" y2="100" />
</g>
</g>
<g fill="hsl(90, 100%, 40%)">
<text y="132">getPathType.get dir.PathReader: get dir</text>
<text y="132" x="580.9312733031206" text-anchor="end">2.95 μs</text>
</g>
<g>
<title>2.95 μs ± 192 ns</title>
<rect y="138" rx="5" height="22" width="580.9312733031206" fill="hsl(90, 100%, 80%)" stroke="hsl(90, 100%, 55%)" />
<g stroke="hsl(90, 100%, 40%)"><line x1="543.2095054241181" x2="618.6530411821232" y1="149" y2="149" />
<line x1="543.2095054241181" x2="543.2095054241181" y1="143" y2="155" />
<line x1="618.6530411821232" x2="618.6530411821232" y1="143" y2="155" />
</g>
</g>
<text fill="hsl(135, 100%, 40%)" y="187">getPathType.get dir.PosixCompat: get dir 1.85 μs</text>
<g>
<title>1.85 μs ± 173 ns</title>
<rect y="193" rx="5" height="22" width="363.8750533248" fill="hsl(135, 100%, 80%)" stroke="hsl(135, 100%, 55%)" />
<g stroke="hsl(135, 100%, 40%)"><line x1="329.8883709778351" x2="397.86173567176485" y1="204" y2="204" />
<line x1="329.8883709778351" x2="329.8883709778351" y1="198" y2="210" />
<line x1="397.86173567176485" x2="397.86173567176485" y1="198" y2="210" />
</g>
</g>
<text fill="hsl(180, 100%, 40%)" y="242">getPathType.get file link.PathReader: get file link 1.51 μs</text>
<g>
<title>1.51 μs ±  95 ns</title>
<rect y="248" rx="5" height="22" width="296.7691834856416" fill="hsl(180, 100%, 80%)" stroke="hsl(180, 100%, 55%)" />
<g stroke="hsl(180, 100%, 40%)"><line x1="278.02374263835316" x2="315.51462433293" y1="259" y2="259" />
<line x1="278.02374263835316" x2="278.02374263835316" y1="253" y2="265" />
<line x1="315.51462433293" x2="315.51462433293" y1="253" y2="265" />
</g>
</g>
<text fill="hsl(225, 100%, 40%)" y="297">getPathType.get file link.PosixCompat: get file link 1.89 μs</text>
<g>
<title>1.89 μs ± 174 ns</title>
<rect y="303" rx="5" height="22" width="371.30077781504207" fill="hsl(225, 100%, 80%)" stroke="hsl(225, 100%, 55%)" />
<g stroke="hsl(225, 100%, 40%)"><line x1="337.1296225200437" x2="405.4719331100404" y1="314" y2="314" />
<line x1="337.1296225200437" x2="337.1296225200437" y1="308" y2="320" />
<line x1="405.4719331100404" x2="405.4719331100404" y1="308" y2="320" />
</g>
</g>
<text fill="hsl(270, 100%, 40%)" y="352">getPathType.get dir link.PathReader: get dir link 1.50 μs</text>
<g>
<title>1.50 μs ±  99 ns</title>
<rect y="358" rx="5" height="22" width="294.20996549762526" fill="hsl(270, 100%, 80%)" stroke="hsl(270, 100%, 55%)" />
<g stroke="hsl(270, 100%, 40%)"><line x1="274.7085395626603" x2="313.71139143259023" y1="369" y2="369" />
<line x1="274.7085395626603" x2="274.7085395626603" y1="363" y2="375" />
<line x1="313.71139143259023" x2="313.71139143259023" y1="363" y2="375" />
</g>
</g>
<text fill="hsl(315, 100%, 40%)" y="407">getPathType.get dir link.PosixCompat: get dir link 1.88 μs</text>
<g>
<title>1.88 μs ± 167 ns</title>
<rect y="413" rx="5" height="22" width="369.1748155887717" fill="hsl(315, 100%, 80%)" stroke="hsl(315, 100%, 55%)" />
<g stroke="hsl(315, 100%, 40%)"><line x1="336.2800242945592" x2="402.0696068829842" y1="424" y2="424" />
<line x1="336.2800242945592" x2="336.2800242945592" y1="418" y2="430" />
<line x1="402.0696068829842" x2="402.0696068829842" y1="418" y2="430" />
</g>
</g>
</g>
</svg>
