<svg xmlns="http://www.w3.org/2000/svg" height="447" width="960.0" font-size="16" font-family="sans-serif" stroke-width="2">
<g transform="translate(10.0 0)">
<g fill="hsl(0, 100%, 40%)">
<text y="22">getPathType.get file.PathReader: get file</text>
<text y="22" x="890.6396322848278" text-anchor="end">1.83 μs</text>
</g>
<g>
<title>1.83 μs ± 101 ns</title>
<rect y="28" rx="5" height="22" width="890.6396322848278" fill="hsl(0, 100%, 80%)" stroke="hsl(0, 100%, 55%)" />
<g stroke="hsl(0, 100%, 40%)"><line x1="841.2792645696557" x2="940.0" y1="39" y2="39" />
<line x1="841.2792645696557" x2="841.2792645696557" y1="33" y2="45" />
<line x1="940.0" x2="940.0" y1="33" y2="45" />
</g>
</g>
<text fill="hsl(45, 100%, 40%)" y="77">getPathType.get file.PosixCompat: get file 756  ns</text>
<g>
<title>756  ns ±  58 ns</title>
<rect y="83" rx="5" height="22" width="368.6026242548031" fill="hsl(45, 100%, 80%)" stroke="hsl(45, 100%, 55%)" />
<g stroke="hsl(45, 100%, 40%)"><line x1="340.41257999163906" x2="396.7926685179672" y1="94" y2="94" />
<line x1="340.41257999163906" x2="340.41257999163906" y1="88" y2="100" />
<line x1="396.7926685179672" x2="396.7926685179672" y1="88" y2="100" />
</g>
</g>
<g fill="hsl(90, 100%, 40%)">
<text y="132">getPathType.get dir.PathReader: get dir</text>
<text y="132" x="669.6398262668217" text-anchor="end">1.37 μs</text>
</g>
<g>
<title>1.37 μs ±  91 ns</title>
<rect y="138" rx="5" height="22" width="669.6398262668217" fill="hsl(90, 100%, 80%)" stroke="hsl(90, 100%, 55%)" />
<g stroke="hsl(90, 100%, 40%)"><line x1="625.3918903078504" x2="713.887762225793" y1="149" y2="149" />
<line x1="625.3918903078504" x2="625.3918903078504" y1="143" y2="155" />
<line x1="713.887762225793" x2="713.887762225793" y1="143" y2="155" />
</g>
</g>
<text fill="hsl(135, 100%, 40%)" y="187">getPathType.get dir.PosixCompat: get dir 728  ns</text>
<g>
<title>728  ns ±  70 ns</title>
<rect y="193" rx="5" height="22" width="354.8922777531698" fill="hsl(135, 100%, 80%)" stroke="hsl(135, 100%, 55%)" />
<g stroke="hsl(135, 100%, 40%)"><line x1="320.5201207045177" x2="389.26443480182195" y1="204" y2="204" />
<line x1="320.5201207045177" x2="320.5201207045177" y1="198" y2="210" />
<line x1="389.26443480182195" x2="389.26443480182195" y1="198" y2="210" />
</g>
</g>
<text fill="hsl(180, 100%, 40%)" y="242">getPathType.get file link.PathReader: get file link 577  ns</text>
<g>
<title>577  ns ±  36 ns</title>
<rect y="248" rx="5" height="22" width="281.4996779069032" fill="hsl(180, 100%, 80%)" stroke="hsl(180, 100%, 55%)" />
<g stroke="hsl(180, 100%, 40%)"><line x1="264.09127734549645" x2="298.9080784683099" y1="259" y2="259" />
<line x1="264.09127734549645" x2="264.09127734549645" y1="253" y2="265" />
<line x1="298.9080784683099" x2="298.9080784683099" y1="253" y2="265" />
</g>
</g>
<text fill="hsl(225, 100%, 40%)" y="297">getPathType.get file link.PosixCompat: get file link 743  ns</text>
<g>
<title>743  ns ±  71 ns</title>
<rect y="303" rx="5" height="22" width="362.37955740985285" fill="hsl(225, 100%, 80%)" stroke="hsl(225, 100%, 55%)" />
<g stroke="hsl(225, 100%, 40%)"><line x1="327.9664463017385" x2="396.79266851796723" y1="314" y2="314" />
<line x1="327.9664463017385" x2="327.9664463017385" y1="308" y2="320" />
<line x1="396.79266851796723" x2="396.79266851796723" y1="308" y2="320" />
</g>
</g>
<text fill="hsl(270, 100%, 40%)" y="352">getPathType.get dir link.PathReader: get dir link 580  ns</text>
<g>
<title>580  ns ±  44 ns</title>
<rect y="358" rx="5" height="22" width="282.7614529770012" fill="hsl(270, 100%, 80%)" stroke="hsl(270, 100%, 55%)" />
<g stroke="hsl(270, 100%, 40%)"><line x1="261.35613123141223" x2="304.1667747225902" y1="369" y2="369" />
<line x1="261.35613123141223" x2="261.35613123141223" y1="363" y2="375" />
<line x1="304.1667747225902" x2="304.1667747225902" y1="363" y2="375" />
</g>
</g>
<text fill="hsl(315, 100%, 40%)" y="407">getPathType.get dir link.PosixCompat: get dir link 742  ns</text>
<g>
<title>742  ns ±  49 ns</title>
<rect y="413" rx="5" height="22" width="361.59752989345515" fill="hsl(315, 100%, 80%)" stroke="hsl(315, 100%, 55%)" />
<g stroke="hsl(315, 100%, 40%)"><line x1="337.83149914886513" x2="385.36356063804516" y1="424" y2="424" />
<line x1="337.83149914886513" x2="337.83149914886513" y1="418" y2="430" />
<line x1="385.36356063804516" x2="385.36356063804516" y1="418" y2="430" />
</g>
</g>
</g>
</svg>
