<svg xmlns="http://www.w3.org/2000/svg" height="447" width="960.0" font-size="16" font-family="sans-serif" stroke-width="2">
<g transform="translate(10.0 0)">
<g fill="hsl(0, 100%, 40%)">
<text y="22">getPathType.get file.PathReader: get file</text>
<text y="22" x="873.2900616055447" text-anchor="end">4.36 μs</text>
</g>
<g>
<title>4.36 μs ± 333 ns</title>
<rect y="28" rx="5" height="22" width="873.2900616055447" fill="hsl(0, 100%, 80%)" stroke="hsl(0, 100%, 55%)" />
<g stroke="hsl(0, 100%, 40%)"><line x1="806.5801232110894" x2="940.0" y1="39" y2="39" />
<line x1="806.5801232110894" x2="806.5801232110894" y1="33" y2="45" />
<line x1="940.0" x2="940.0" y1="33" y2="45" />
</g>
</g>
<text fill="hsl(45, 100%, 40%)" y="77">getPathType.get file.PosixCompat: get file 1.71 μs</text>
<g>
<title>1.71 μs ± 170 ns</title>
<rect y="83" rx="5" height="22" width="342.1683882048326" fill="hsl(45, 100%, 80%)" stroke="hsl(45, 100%, 55%)" />
<g stroke="hsl(45, 100%, 40%)"><line x1="308.13135670671306" x2="376.2054197029521" y1="94" y2="94" />
<line x1="308.13135670671306" x2="308.13135670671306" y1="88" y2="100" />
<line x1="376.2054197029521" x2="376.2054197029521" y1="88" y2="100" />
</g>
</g>
<g fill="hsl(90, 100%, 40%)">
<text y="132">getPathType.get dir.PathReader: get dir</text>
<text y="132" x="574.7300054664855" text-anchor="end">2.87 μs</text>
</g>
<g>
<title>2.87 μs ± 186 ns</title>
<rect y="138" rx="5" height="22" width="574.7300054664855" fill="hsl(90, 100%, 80%)" stroke="hsl(90, 100%, 55%)" />
<g stroke="hsl(90, 100%, 40%)"><line x1="537.5710270303434" x2="611.8889839026276" y1="149" y2="149" />
<line x1="537.5710270303434" x2="537.5710270303434" y1="143" y2="155" />
<line x1="611.8889839026276" x2="611.8889839026276" y1="143" y2="155" />
</g>
</g>
<text fill="hsl(135, 100%, 40%)" y="187">getPathType.get dir.PosixCompat: get dir 1.68 μs</text>
<g>
<title>1.68 μs ±  84 ns</title>
<rect y="193" rx="5" height="22" width="336.58993561647515" fill="hsl(135, 100%, 80%)" stroke="hsl(135, 100%, 55%)" />
<g stroke="hsl(135, 100%, 40%)"><line x1="319.79109759615244" x2="353.38877363679785" y1="204" y2="204" />
<line x1="319.79109759615244" x2="319.79109759615244" y1="198" y2="210" />
<line x1="353.38877363679785" x2="353.38877363679785" y1="198" y2="210" />
</g>
</g>
<text fill="hsl(180, 100%, 40%)" y="242">getPathType.get file link.PathReader: get file link 1.43 μs</text>
<g>
<title>1.43 μs ±  87 ns</title>
<rect y="248" rx="5" height="22" width="285.92147774910325" fill="hsl(180, 100%, 80%)" stroke="hsl(180, 100%, 55%)" />
<g stroke="hsl(180, 100%, 40%)"><line x1="268.54470907687977" x2="303.2982464213267" y1="259" y2="259" />
<line x1="268.54470907687977" x2="268.54470907687977" y1="253" y2="265" />
<line x1="303.2982464213267" x2="303.2982464213267" y1="253" y2="265" />
</g>
</g>
<text fill="hsl(225, 100%, 40%)" y="297">getPathType.get file link.PosixCompat: get file link 1.70 μs</text>
<g>
<title>1.70 μs ± 169 ns</title>
<rect y="303" rx="5" height="22" width="340.0296843370917" fill="hsl(225, 100%, 80%)" stroke="hsl(225, 100%, 55%)" />
<g stroke="hsl(225, 100%, 40%)"><line x1="306.21373233990715" x2="373.8456363342762" y1="314" y2="314" />
<line x1="306.21373233990715" x2="306.21373233990715" y1="308" y2="320" />
<line x1="373.8456363342762" x2="373.8456363342762" y1="308" y2="320" />
</g>
</g>
<text fill="hsl(270, 100%, 40%)" y="352">getPathType.get dir link.PathReader: get dir link 1.44 μs</text>
<g>
<title>1.44 μs ±  99 ns</title>
<rect y="358" rx="5" height="22" width="288.08060744030007" fill="hsl(270, 100%, 80%)" stroke="hsl(270, 100%, 55%)" />
<g stroke="hsl(270, 100%, 40%)"><line x1="268.2182964079268" x2="307.94291847267334" y1="369" y2="369" />
<line x1="268.2182964079268" x2="268.2182964079268" y1="363" y2="375" />
<line x1="307.94291847267334" x2="307.94291847267334" y1="363" y2="375" />
</g>
</g>
<text fill="hsl(315, 100%, 40%)" y="407">getPathType.get dir link.PosixCompat: get dir link 1.70 μs</text>
<g>
<title>1.70 μs ± 167 ns</title>
<rect y="413" rx="5" height="22" width="340.97007322875004" fill="hsl(315, 100%, 80%)" stroke="hsl(315, 100%, 55%)" />
<g stroke="hsl(315, 100%, 40%)"><line x1="307.4348761774993" x2="374.5052702800008" y1="424" y2="424" />
<line x1="307.4348761774993" x2="307.4348761774993" y1="418" y2="430" />
<line x1="374.5052702800008" x2="374.5052702800008" y1="418" y2="430" />
</g>
</g>
</g>
</svg>
